<?xml version="1.0" standalone="no"?>
<!DOCTYPE svg PUBLIC "-//W3C//DTD SVG 20010904//EN"
 "http://www.w3.org/TR/2001/REC-SVG-20010904/DTD/svg10.dtd">
<svg version="1.0" xmlns="http://www.w3.org/2000/svg"
 width="70.000000pt" height="70.000000pt" viewBox="0 0 70.000000 70.000000"
 preserveAspectRatio="xMidYMid meet">
<metadata>
Created by potrace 1.14, written by Peter Selinger 2001-2017
</metadata>
<g transform="translate(0.000000,70.000000) scale(0.100000,-0.100000)"
fill="#000000" stroke="none">
<path d="M332 658 c-7 -7 -12 -8 -12 -4 0 5 -9 -2 -19 -16 -41 -51 -36 -98 14
-151 20 -21 24 -32 16 -40 -8 -8 -11 -8 -11 1 0 7 -6 12 -13 12 -19 0 -70 -56
-63 -68 4 -6 2 -13 -4 -17 -5 -3 -10 -19 -10 -35 0 -16 -5 -32 -10 -35 -6 -4
-8 -10 -5 -15 3 -4 -5 -27 -17 -49 -15 -29 -28 -41 -45 -42 -13 0 -42 -1 -65
-1 -38 -1 -79 -25 -78 -45 2 -34 118 -113 157 -107 12 2 25 -1 28 -6 7 -12
105 -14 105 -2 0 4 27 7 60 7 33 0 60 -3 60 -8 0 -8 32 -6 127 5 12 2 25 6 29
10 4 5 15 8 25 8 21 0 99 73 99 93 0 29 -34 46 -93 46 -40 0 -65 5 -77 16 -16
14 -40 82 -45 125 -8 69 -61 134 -91 109 -25 -20 -17 13 11 45 14 16 25 35 25
43 0 7 4 13 9 13 19 0 -6 68 -34 97 -7 7 -15 9 -19 6 -3 -4 -6 -1 -6 5 0 16
-33 15 -48 0z m60 -62 c18 -22 11 -45 -21 -77 -14 -14 -18 -13 -38 9 -28 30
-29 46 -6 76 20 26 39 24 65 -8z m-88 -215 c-5 -3 -11 -13 -12 -21 -2 -8 -7
-26 -10 -40 -4 -14 -6 -58 -5 -97 0 -40 -3 -73 -8 -73 -5 0 -9 5 -9 10 0 6 -6
10 -14 10 -24 0 -28 18 -10 45 9 14 13 25 9 25 -4 0 -3 6 2 13 6 6 11 19 11
27 3 58 41 148 50 120 3 -7 1 -15 -4 -19z m86 -58 c0 -12 4 -24 8 -27 17 -10
-2 -131 -25 -158 -14 -15 -16 -15 -32 1 -10 10 -19 24 -20 32 -10 78 -12 112
-5 127 4 9 6 25 5 35 -1 9 2 17 8 17 5 0 13 14 16 32 l7 32 19 -35 c10 -18 18
-44 19 -56z m44 49 c7 -15 12 -35 11 -44 -2 -10 1 -20 6 -24 5 -3 9 -11 9 -19
0 -8 5 -26 12 -42 6 -15 12 -31 12 -35 1 -3 4 -10 8 -14 7 -6 -43 -44 -57 -44
-3 0 -5 11 -5 25 0 14 3 25 8 25 4 0 7 20 8 45 0 25 -3 45 -6 45 -4 0 -10 19
-13 42 -3 24 -11 44 -16 46 -6 2 -11 10 -11 18 0 21 17 8 34 -24z m-300 -224
c13 -14 22 -16 37 -8 13 8 19 7 19 0 0 -6 4 -9 8 -6 5 3 18 -3 28 -12 10 -10
22 -19 26 -20 58 -18 55 -25 -12 -24 -76 2 -175 47 -164 76 7 18 37 15 58 -6z
m502 7 c8 -7 4 -16 -14 -32 -14 -12 -29 -20 -34 -17 -4 3 -8 0 -8 -5 0 -6 -13
-11 -30 -11 -16 0 -30 -3 -30 -7 0 -9 -86 -10 -95 -2 -2 3 22 19 55 37 33 17
60 28 60 24 0 -16 40 -7 46 10 6 19 31 20 50 3z"/>
</g>
</svg>
